# xmcd
#
# Track frame offsets:
#	150
#	13042
#	23934
#	36105
#	48330
#	61649
#	73455
#	89098
#	114902
#	133150
#	144660
#	158755
#	177935
#	188446
#	201581
#	215791
#	230244
#	241572
#	253283
#	267034
#	278588
#	289161
#	300462
#	313453
#
# Disc length: 4421 seconds
#
# Revision: 4
# Processed by: cddbd v1.5.2PL0 Copyright (c) Steve Scherf et al.
# Submitted via: EZCDAudioConverter 1.3.4.1
#
DISCID=6d114318
DTITLE=John Martyn - 1967 London Conversation and 1968 The Tumbler
DYEAR=1967
DGENRE=
TTITLE0=Fairy Tale Lullaby
TTITLE1=Sandy Grey
TTITLE2=London Conversation
TTITLE3=Ballad Of An Elder Woman
TTITLE4=Cocaine
TTITLE5=Run Honey Run
TTITLE6=Back To Stay
TTITLE7=Rolling Home
TTITLE8=Who's Grown Up Now
TTITLE9=Golden Girl
TTITLE10=This Time
TTITLE11=Don't Think Twice, It's Alright
TTITLE12=Sing A Song Of Summer
TTITLE13=The River
TTITLE14=Goin' Down To Memphis
TTITLE15=The Gardeners
TTITLE16=A Day At The Sea
TTITLE17=Fishin' Blues
TTITLE18=Dusty
TTITLE19=Hello Train
TTITLE20=Winding Boy
TTITLE21=Fly On Home
TTITLE22=Knuckledy Crunch And Slippledee-Slee Song
TTITLE23=Seven Black Roses
EXTD=
EXTT0=
EXTT1=
EXTT2=
EXTT3=
EXTT4=
EXTT5=
EXTT6=
EXTT7=
EXTT8=
EXTT9=
EXTT10=
EXTT11=
EXTT12=
EXTT13=
EXTT14=
EXTT15=
EXTT16=
EXTT17=
EXTT18=
EXTT19=
EXTT20=
EXTT21=
EXTT22=
EXTT23=
PLAYORDER=
